<svg width="36" height="36" viewBox="0 0 36 36" fill="none" xmlns="http://www.w3.org/2000/svg">
<path d="M28.8333 6H7.16667C6.59203 6 6.04093 6.22827 5.6346 6.6346C5.22827 7.04093 5 7.59203 5 8.16667V29.8333C5 30.408 5.22827 30.9591 5.6346 31.3654C6.04093 31.7717 6.59203 32 7.16667 32H28.8333C29.408 32 29.9591 31.7717 30.3654 31.3654C30.7717 30.9591 31 30.408 31 29.8333V8.16667C31 7.59203 30.7717 7.04093 30.3654 6.6346C29.9591 6.22827 29.408 6 28.8333 6ZM28.8333 8.16667V22.25H24.9469C24.6625 22.2493 24.3807 22.305 24.1181 22.4141C23.8554 22.5231 23.617 22.6832 23.4167 22.8851L20.8018 25.5H15.1982L12.5833 22.8851C12.3829 22.683 12.1442 22.5228 11.8813 22.4138C11.6184 22.3048 11.3364 22.2491 11.0518 22.25H7.16667V8.16667H28.8333ZM28.8333 29.8333H7.16667V24.4167H11.0518L13.6667 27.0316C13.8671 27.2336 14.1058 27.3938 14.3687 27.5029C14.6316 27.6119 14.9136 27.6676 15.1982 27.6667H20.8018C21.0864 27.6676 21.3684 27.6119 21.6313 27.5029C21.8942 27.3938 22.1329 27.2336 22.3333 27.0316L24.9482 24.4167H28.8333V29.8333Z" fill="#FFE790"/>
</svg>
