<svg width="36" height="36" viewBox="0 0 36 36" fill="none" xmlns="http://www.w3.org/2000/svg">
<path d="M30.375 6.75H5.625C5.32663 6.75 5.04048 6.86853 4.82951 7.07951C4.61853 7.29048 4.5 7.57663 4.5 7.875V29.25C4.5 29.8467 4.73705 30.419 5.15901 30.841C5.58097 31.2629 6.15326 31.5 6.75 31.5H12.375C12.9717 31.5 13.544 31.2629 13.966 30.841C14.3879 30.419 14.625 29.8467 14.625 29.25V22.5H21.375V24.75C21.375 25.3467 21.6121 25.919 22.034 26.341C22.456 26.7629 23.0283 27 23.625 27H29.25C29.8467 27 30.419 26.7629 30.841 26.341C31.2629 25.919 31.5 25.3467 31.5 24.75V7.875C31.5 7.57663 31.3815 7.29048 31.1705 7.07951C30.9595 6.86853 30.6734 6.75 30.375 6.75ZM12.375 29.25H6.75V18H12.375V29.25ZM12.375 15.75H6.75V9H12.375V15.75ZM21.375 20.25H14.625V9H21.375V20.25ZM29.25 24.75H23.625V18H29.25V24.75ZM29.25 15.75H23.625V9H29.25V15.75Z" fill="#FFE790"/>
</svg>
