<svg width="36" height="36" viewBox="0 0 36 36" fill="none" xmlns="http://www.w3.org/2000/svg">
<path d="M30.3443 16.6179C30.3017 16.4376 30.2152 16.2706 30.0926 16.1317C29.9699 15.9929 29.8148 15.8865 29.6412 15.8219L21.5398 12.783L23.6013 2.47101C23.648 2.23141 23.6155 1.98313 23.5087 1.76364C23.4019 1.54414 23.2266 1.36534 23.0093 1.25421C22.7919 1.14308 22.5443 1.10565 22.3039 1.14758C22.0634 1.18951 21.8431 1.30851 21.6762 1.48663L5.92617 18.3616C5.79825 18.4964 5.70571 18.6608 5.65682 18.8401C5.60793 19.0194 5.60421 19.208 5.646 19.389C5.68778 19.5701 5.77377 19.738 5.89628 19.8777C6.01878 20.0174 6.174 20.1247 6.34804 20.1898L14.4523 23.2287L12.3963 33.5294C12.3496 33.769 12.3822 34.0173 12.489 34.2368C12.5958 34.4563 12.7711 34.6351 12.9884 34.7462C13.2057 34.8574 13.4533 34.8948 13.6938 34.8529C13.9343 34.8109 14.1546 34.6919 14.3215 34.5138L30.0715 17.6388C30.1971 17.504 30.2877 17.3404 30.3352 17.1624C30.3828 16.9844 30.3859 16.7974 30.3443 16.6179ZM15.379 30.094L16.8513 22.728C16.904 22.4668 16.8623 22.1953 16.7335 21.962C16.6047 21.7287 16.3973 21.5486 16.1482 21.454L8.71758 18.6626L20.6173 5.9135L19.1463 13.2794C19.0936 13.5407 19.1354 13.8121 19.2642 14.0455C19.3929 14.2788 19.6003 14.4588 19.8495 14.5535L27.2745 17.3379L15.379 30.094Z" fill="#FFE790"/>
</svg>
