<svg width="174" height="36" viewBox="0 0 174 36" fill="none" xmlns="http://www.w3.org/2000/svg">
<path d="M5.6625 7.14773C7.26672 7.14773 8.56719 5.82661 8.56719 4.19691C8.56719 2.56722 7.26672 1.24609 5.6625 1.24609C4.05829 1.24609 2.75781 2.56722 2.75781 4.19691C2.75781 5.82661 4.05829 7.14773 5.6625 7.14773Z" fill="#FBDD1C"/>
<path d="M22.0262 22.9341C21.1548 24.7537 19.3636 25.8357 16.7009 25.8357C14.0383 25.8357 12.0534 24.7537 10.94 23.0324C10.4558 22.9833 10.0201 22.9341 9.58443 22.9341H9.39078C8.22891 22.7865 7.16386 22.639 6.14721 22.4423C5.85675 22.3931 5.56628 22.3439 5.32422 22.2456C6.53451 27.1636 10.94 30.7537 16.6525 30.7537C22.0262 30.7537 26.2864 27.5078 27.1578 22.0488H27.1094C25.7539 22.3931 24.1079 22.6882 22.0262 22.9341Z" fill="white"/>
<path d="M26.6265 16.3926C26.578 16.4418 27.8367 17.1795 26.5296 18.0155H26.4812C25.1741 18.8516 23.867 19.3434 16.46 19.3926H15.9275C13.4585 19.3926 11.4737 19.2942 9.92449 19.1959C6.48727 18.9008 5.08334 18.4582 5.03493 18.3106C5.08334 17.6713 5.18016 17.0319 5.37381 16.3926C1.83977 17.0319 0.242188 18.2614 0.242188 19.3434C0.242188 20.1795 1.88818 21.3598 5.37381 22.1959C5.61586 22.245 5.90633 22.3434 6.1968 22.3926C7.16503 22.5893 8.2785 22.7368 9.44037 22.8844H9.63402C10.0697 22.9336 10.5054 22.9827 10.9895 22.9827C12.3935 23.0811 13.9911 23.1795 15.6855 23.1795C18.106 23.1795 20.2361 23.0811 22.0758 22.8844H22.1242C24.1575 22.6877 25.8519 22.3926 27.2074 21.9991H27.2558C30.451 21.1631 31.7581 20.0319 31.7581 19.245C31.6128 18.0647 29.7732 17.1303 26.6265 16.3926Z" fill="#FBDD1C"/>
<path d="M16.3127 7.88477C10.939 7.88477 6.58195 11.4749 5.32326 16.393C5.17802 17.0323 5.0812 17.6717 4.98438 18.311C5.03279 18.4585 6.43672 18.9503 9.87394 19.1962C9.92235 15.4094 12.6334 12.7536 16.2158 12.7536C18.6364 12.7536 20.6213 13.8848 21.4927 15.311L25.7045 12.852C23.9617 9.95034 20.4276 7.88477 16.3127 7.88477Z" fill="white"/>
<path d="M49.74 25V10.8H54.1C56.2067 10.8 57.9733 11.48 59.4 12.84C60.8267 14.2 61.54 15.8867 61.54 17.9C61.54 19.9133 60.8267 21.6 59.4 22.96C57.9733 24.32 56.2067 25 54.1 25H49.74ZM52.08 22.82H54.1C55.5933 22.82 56.8067 22.3533 57.74 21.42C58.6867 20.4867 59.16 19.3133 59.16 17.9C59.16 16.4867 58.6867 15.3133 57.74 14.38C56.8067 13.4467 55.5933 12.98 54.1 12.98H52.08V22.82ZM68.275 25.2C66.7817 25.2 65.555 24.7133 64.595 23.74C63.635 22.7533 63.155 21.5067 63.155 20C63.155 18.4933 63.6283 17.2533 64.575 16.28C65.5217 15.2933 66.7617 14.8 68.295 14.8C69.8417 14.8 71.0883 15.34 72.035 16.42C72.9817 17.4867 73.4017 18.86 73.295 20.54H65.335C65.3617 21.3133 65.655 21.96 66.215 22.48C66.775 23 67.4883 23.26 68.355 23.26C69.5817 23.26 70.4217 22.7933 70.875 21.86H73.175C72.8683 22.8333 72.2817 23.6333 71.415 24.26C70.5483 24.8867 69.5017 25.2 68.275 25.2ZM68.235 16.64C67.515 16.64 66.895 16.8467 66.375 17.26C65.8683 17.66 65.5417 18.2333 65.395 18.98H70.935C70.775 18.2067 70.4483 17.6267 69.955 17.24C69.4617 16.84 68.8883 16.64 68.235 16.64ZM79.0742 25.2C77.8876 25.2 76.8876 24.9067 76.0742 24.32C75.2742 23.7333 74.8476 22.9467 74.7942 21.96H77.0742C77.2342 22.9467 77.9209 23.44 79.1342 23.44C79.6276 23.44 80.0209 23.3533 80.3142 23.18C80.6076 22.9933 80.7542 22.7267 80.7542 22.38C80.7542 22.0333 80.6409 21.76 80.4142 21.56C80.1876 21.36 79.8076 21.1933 79.2742 21.06L77.6342 20.62C75.9276 20.1667 75.0742 19.16 75.0742 17.6C75.0742 16.76 75.4142 16.0867 76.0942 15.58C76.7742 15.06 77.6742 14.8 78.7942 14.8C79.8742 14.8 80.7609 15.0733 81.4542 15.62C82.1476 16.1667 82.5342 16.8933 82.6142 17.8H80.4142C80.2009 16.9733 79.6542 16.56 78.7742 16.56C78.3342 16.56 77.9809 16.6533 77.7142 16.84C77.4476 17.0133 77.3142 17.26 77.3142 17.58C77.3142 18.1533 77.7609 18.5533 78.6542 18.78L80.3342 19.22C82.1076 19.6733 82.9942 20.68 82.9942 22.24C82.9942 23.1867 82.6276 23.92 81.8942 24.44C81.1742 24.9467 80.2342 25.2 79.0742 25.2ZM86.3222 12.82C85.9222 12.82 85.5755 12.68 85.2822 12.4C84.9889 12.1067 84.8422 11.7533 84.8422 11.34C84.8422 10.94 84.9889 10.6 85.2822 10.32C85.5755 10.0267 85.9222 9.88 86.3222 9.88C86.7355 9.88 87.0822 10.0267 87.3622 10.32C87.6422 10.6 87.7822 10.94 87.7822 11.34C87.7822 11.7533 87.6422 12.1067 87.3622 12.4C87.0822 12.68 86.7355 12.82 86.3222 12.82ZM85.2222 25V15H87.4222V25H85.2222ZM94.8984 29.38C93.5384 29.38 92.4184 29.0467 91.5384 28.38C90.6718 27.7133 90.1718 26.8467 90.0384 25.78H92.1984C92.5851 26.9267 93.5051 27.5 94.9584 27.5C95.7451 27.5 96.3918 27.24 96.8984 26.72C97.4184 26.2133 97.6784 25.4933 97.6784 24.56V23.38C97.3584 23.8333 96.9118 24.2067 96.3384 24.5C95.7651 24.7933 95.1451 24.94 94.4784 24.94C93.1318 24.94 91.9918 24.4533 91.0584 23.48C90.1384 22.4933 89.6784 21.2867 89.6784 19.86C89.6784 18.4467 90.1384 17.2533 91.0584 16.28C91.9918 15.2933 93.1318 14.8 94.4784 14.8C95.1451 14.8 95.7651 14.9467 96.3384 15.24C96.9118 15.52 97.3584 15.8867 97.6784 16.34V15H99.8784V24.38C99.8784 26.0333 99.4051 27.28 98.4584 28.12C97.5251 28.96 96.3384 29.38 94.8984 29.38ZM92.7584 22.06C93.3318 22.6333 94.0384 22.92 94.8784 22.92C95.7184 22.92 96.4251 22.6333 96.9984 22.06C97.5718 21.4733 97.8584 20.74 97.8584 19.86C97.8584 18.98 97.5718 18.2533 96.9984 17.68C96.4251 17.0933 95.7184 16.8 94.8784 16.8C94.0384 16.8 93.3318 17.0933 92.7584 17.68C92.1851 18.2533 91.8984 18.98 91.8984 19.86C91.8984 20.74 92.1851 21.4733 92.7584 22.06ZM102.839 25V15H105.039V16.36C105.666 15.32 106.679 14.8 108.079 14.8C109.239 14.8 110.166 15.18 110.859 15.94C111.553 16.7 111.899 17.7133 111.899 18.98V25H109.699V19.34C109.699 18.54 109.513 17.92 109.139 17.48C108.766 17.0267 108.259 16.8 107.619 16.8C106.859 16.8 106.239 17.0867 105.759 17.66C105.279 18.2333 105.039 19.04 105.039 20.08V25H102.839ZM122.878 12.14C123.798 13.02 124.258 14.12 124.258 15.44C124.258 16.76 123.798 17.8667 122.878 18.76C121.958 19.64 120.778 20.08 119.338 20.08H117.158V25H114.818V10.8H119.338C120.778 10.8 121.958 11.2467 122.878 12.14ZM121.238 17.2C121.718 16.7333 121.958 16.1467 121.958 15.44C121.958 14.7333 121.718 14.1533 121.238 13.7C120.771 13.2333 120.131 13 119.318 13H117.158V17.88H119.318C120.131 17.88 120.771 17.6533 121.238 17.2ZM126.238 25V10H128.438V25H126.238ZM135.494 25.2C134.134 25.2 132.987 24.6933 132.054 23.68C131.134 22.6667 130.674 21.44 130.674 20C130.674 18.56 131.134 17.3333 132.054 16.32C132.987 15.3067 134.134 14.8 135.494 14.8C136.174 14.8 136.801 14.9533 137.374 15.26C137.947 15.5533 138.387 15.9133 138.694 16.34V15H140.894V25H138.694V23.66C138.387 24.0867 137.947 24.4533 137.374 24.76C136.801 25.0533 136.174 25.2 135.494 25.2ZM133.754 22.28C134.314 22.8933 135.027 23.2 135.894 23.2C136.761 23.2 137.474 22.8933 138.034 22.28C138.594 21.6667 138.874 20.9067 138.874 20C138.874 19.0933 138.594 18.3333 138.034 17.72C137.474 17.1067 136.761 16.8 135.894 16.8C135.027 16.8 134.314 17.1067 133.754 17.72C133.194 18.3333 132.914 19.0933 132.914 20C132.914 20.9067 133.194 21.6667 133.754 22.28ZM143.875 25V15H146.075V16.36C146.701 15.32 147.715 14.8 149.115 14.8C150.275 14.8 151.201 15.18 151.895 15.94C152.588 16.7 152.935 17.7133 152.935 18.98V25H150.735V19.34C150.735 18.54 150.548 17.92 150.175 17.48C149.801 17.0267 149.295 16.8 148.655 16.8C147.895 16.8 147.275 17.0867 146.795 17.66C146.315 18.2333 146.075 19.04 146.075 20.08V25H143.875ZM160.17 25.2C158.676 25.2 157.45 24.7133 156.49 23.74C155.53 22.7533 155.05 21.5067 155.05 20C155.05 18.4933 155.523 17.2533 156.47 16.28C157.416 15.2933 158.656 14.8 160.19 14.8C161.736 14.8 162.983 15.34 163.93 16.42C164.876 17.4867 165.296 18.86 165.19 20.54H157.23C157.256 21.3133 157.55 21.96 158.11 22.48C158.67 23 159.383 23.26 160.25 23.26C161.476 23.26 162.316 22.7933 162.77 21.86H165.07C164.763 22.8333 164.176 23.6333 163.31 24.26C162.443 24.8867 161.396 25.2 160.17 25.2ZM160.13 16.64C159.41 16.64 158.79 16.8467 158.27 17.26C157.763 17.66 157.436 18.2333 157.29 18.98H162.83C162.67 18.2067 162.343 17.6267 161.85 17.24C161.356 16.84 160.783 16.64 160.13 16.64ZM171.613 25.1C170.6 25.1 169.773 24.82 169.133 24.26C168.506 23.6867 168.193 22.86 168.193 21.78V16.96H166.113V15H168.193V12.22H170.393V15H173.253V16.96H170.393V21.42C170.393 22.0333 170.526 22.4733 170.793 22.74C171.06 22.9933 171.486 23.12 172.073 23.12C172.553 23.12 172.946 23.0533 173.253 22.92V24.88C172.773 25.0267 172.226 25.1 171.613 25.1Z" fill="white"/>
</svg>
