<svg width="164" height="168" viewBox="0 0 164 168" fill="none" xmlns="http://www.w3.org/2000/svg">
<circle cx="82" cy="45.829" r="43.6805" fill="#081131"/>
<g filter="url(#filter0_i_101_165)">
<path d="M82.0005 0C107.271 0.000261322 127.829 20.5585 127.829 45.8291C127.828 71.0996 107.271 91.657 82.0005 91.6572V91.6484C56.7298 91.6484 36.1716 71.0911 36.1714 45.8291C36.1714 20.567 56.7297 0 82.0005 0ZM82.0005 3.89844C58.8782 3.89844 40.0698 22.7068 40.0698 45.8291C40.07 68.9512 58.8783 87.7588 82.0005 87.7588C105.122 87.7585 123.93 68.9511 123.93 45.8291C123.93 22.707 105.114 3.8987 82.0005 3.89844ZM82.0122 5.56152C104.169 5.56152 122.13 23.523 122.13 45.6797C122.13 67.8364 104.169 85.7979 82.0122 85.7979C59.8557 85.7976 41.8941 67.8363 41.894 45.6797C41.8941 23.5232 59.8557 5.56174 82.0122 5.56152ZM82.0122 6.52637C60.3888 6.52658 42.859 24.0562 42.8589 45.6797C42.8589 67.3032 60.3887 84.8328 82.0122 84.833C103.636 84.833 121.166 67.3034 121.166 45.6797C121.165 24.0561 103.636 6.52637 82.0122 6.52637ZM74.1626 19.6035C76.2744 19.6035 78.2766 19.8789 80.1772 20.4297C82.0779 20.9806 83.7682 21.8353 85.2466 22.9922C86.7248 24.1399 87.9186 25.6372 88.8276 27.4551C89.7366 29.2823 90.2694 31.4865 90.4438 34.085H83.2261C83.0608 32.7904 82.7117 31.7059 82.1792 30.8428C81.6467 29.98 80.9946 29.2729 80.2144 28.7129C79.7544 28.3883 79.2524 28.1151 78.7114 27.8906V42.6992C80.3238 43.0998 81.8593 43.585 83.311 44.1465H95.5278V20.2461H102.965V71.1826H95.5278V46.0781H86.897C87.1763 46.2856 87.4476 46.5018 87.7075 46.7295C88.8919 47.7579 89.829 49.0622 90.5269 50.623C91.2246 52.184 91.5737 54.1222 91.5737 56.4268C91.5737 59.1627 91.1418 61.4951 90.2788 63.4141C89.4156 65.3332 88.2396 66.9221 86.7612 68.1709C85.2828 69.4197 83.5565 70.3287 81.564 70.9072C79.5806 71.4857 77.45 71.7705 75.1636 71.7705C72.8774 71.7705 70.6369 71.4952 68.5435 70.9443C66.45 70.3934 64.5855 69.5024 62.9419 68.2812C61.2984 67.06 59.9203 65.4805 58.8276 63.5615C57.7258 61.6424 57.0277 59.3368 56.7339 56.6465H64.3374C64.6771 58.0879 65.2282 59.2912 65.981 60.2461C66.7429 61.21 67.6155 61.9723 68.6069 62.5508C69.2093 62.9022 69.84 63.1884 70.4966 63.4131V48.5488C69.2878 48.1741 68.1176 47.7462 66.9907 47.2617C65.7239 46.7384 64.567 46.1139 63.5112 45.3887C62.4554 44.6725 61.5278 43.7996 60.729 42.7988C59.9303 41.7889 59.3055 40.6043 58.8647 39.2363C58.4241 37.8682 58.2036 36.2695 58.2036 34.4424C58.2037 31.6604 58.6718 29.3186 59.5991 27.418C60.5266 25.5173 61.7387 23.9925 63.2446 22.8447C64.7414 21.697 66.4406 20.8615 68.3413 20.3564C70.2419 19.8515 72.1794 19.6036 74.1626 19.6035ZM72.2837 63.8652C73.2572 64.0414 74.2172 64.1308 75.1636 64.1309C75.7621 64.1309 76.3492 64.102 76.9243 64.0469V50.2744C75.65 49.9 74.3565 49.5566 73.0425 49.2451C72.788 49.1848 72.535 49.1214 72.2837 49.0566V63.8652ZM78.7114 63.7803C79.7571 63.5574 80.6594 63.1997 81.4263 62.6885C82.2251 62.1559 82.8871 61.468 83.3921 60.5957C83.897 59.7234 84.1538 58.6026 84.1538 57.207C84.1537 55.2883 83.7132 53.8829 82.8228 52.9922C81.9321 52.1017 80.756 51.4403 79.2778 51.0088C79.0896 50.9466 78.9005 50.885 78.7114 50.8242V63.7803ZM74.2827 27.0137C73.6249 27.0137 72.9583 27.0609 72.2837 27.1475V40.917C73.25 41.2226 74.2223 41.5127 75.2007 41.7891C75.7982 41.9578 76.3733 42.1132 76.9243 42.2559V27.3486C76.0888 27.1689 75.2079 27.0604 74.2915 27.0234L74.2827 27.0137ZM70.4966 27.4922C69.7931 27.6943 69.1323 27.9786 68.5249 28.3457C67.6802 28.8507 66.9821 29.5488 66.4312 30.4395C65.8803 31.33 65.605 32.4415 65.605 33.791C65.605 35.8109 66.1922 37.3358 67.3765 38.3643C68.2819 39.1504 69.3229 39.7897 70.4966 40.2861V27.4922Z" fill="#FFCB46"/>
</g>
<g clip-path="url(#clip0_101_165)">
<path d="M107.209 117.288C108.284 117.288 109.195 117.405 109.942 117.639C110.713 117.872 111.438 118.188 112.115 118.585C112.372 118.725 112.594 118.842 112.781 118.936C112.991 119.029 113.167 119.075 113.307 119.075C113.517 119.075 113.68 118.958 113.797 118.725C113.914 118.468 114.007 118.07 114.077 117.533H114.884C114.767 118.935 114.708 121.365 114.708 124.822H113.902C113.645 122.72 112.968 121.072 111.87 119.881C110.772 118.666 109.335 118.059 107.56 118.059C106.392 118.059 105.446 118.316 104.722 118.83C104.021 119.344 103.67 120.01 103.67 120.827C103.67 121.458 103.857 122.042 104.23 122.579C104.628 123.093 105.142 123.573 105.772 124.017C106.403 124.46 107.326 125.044 108.541 125.769L109.312 126.224C110.713 127.018 111.858 127.742 112.746 128.396C113.634 129.027 114.37 129.787 114.954 130.675C115.538 131.539 115.83 132.52 115.83 133.618C115.83 135.534 115.036 137.005 113.447 138.033C111.859 139.061 109.767 139.575 107.174 139.575C106.053 139.575 105.083 139.446 104.266 139.189C103.448 138.956 102.618 138.629 101.777 138.209C101.193 137.929 100.784 137.788 100.551 137.788C100.341 137.788 100.177 137.917 100.061 138.174C99.9438 138.407 99.8503 138.793 99.7803 139.33H98.9746C99.0681 138.022 99.1143 135.171 99.1143 130.779H99.9199C100.083 133.256 100.75 135.207 101.918 136.632C103.109 138.057 104.78 138.769 106.929 138.77C107.98 138.77 108.891 138.5 109.662 137.963C110.433 137.426 110.818 136.631 110.818 135.58C110.818 134.646 110.457 133.84 109.732 133.162C109.008 132.485 107.77 131.632 106.018 130.604C103.798 129.343 102.093 128.14 100.901 126.995C99.7333 125.85 99.1494 124.507 99.1494 122.965C99.1495 121.143 99.8975 119.741 101.393 118.76C102.911 117.779 104.85 117.288 107.209 117.288ZM73.21 118.479C72.4393 118.596 71.867 118.771 71.4932 119.005C71.1427 119.239 70.897 119.613 70.7568 120.127C70.6401 120.641 70.582 121.424 70.582 122.475V139.155L69.6357 139.12L68.7246 139.155L54.707 121.738V134.389C54.707 135.417 54.8004 136.2 54.9873 136.737C55.1742 137.251 55.5134 137.625 56.0039 137.858C56.4945 138.092 57.2653 138.267 58.3164 138.384V139.085C57.2653 139.015 55.9339 138.979 54.3223 138.979C53.0376 138.979 52.021 139.015 51.2734 139.085V138.384C52.0441 138.267 52.6047 138.092 52.9551 137.858C53.3288 137.625 53.5746 137.251 53.6914 136.737C53.8316 136.223 53.9014 135.44 53.9014 134.389V121.493C53.9014 120.605 53.8316 119.963 53.6914 119.565C53.5746 119.168 53.3288 118.9 52.9551 118.76C52.6047 118.62 52.0441 118.526 51.2734 118.479V117.778C52.021 117.848 53.0375 117.884 54.3223 117.884C55.9806 117.884 57.4054 117.848 58.5967 117.778L69.7754 131.655V122.475C69.7754 121.447 69.6819 120.676 69.4951 120.162C69.3082 119.625 68.9582 119.239 68.4443 119.005C67.9537 118.771 67.1939 118.596 66.166 118.479V117.778C67.1939 117.848 68.5258 117.884 70.1611 117.884C71.4694 117.884 72.4857 117.848 73.21 117.778V118.479ZM12.0195 114.274C16.5751 114.274 19.9859 115.314 22.252 117.394C24.5179 119.449 25.6514 122.451 25.6514 126.399C25.6513 128.946 25.0901 131.177 23.9688 133.093C22.8708 134.985 21.2704 136.457 19.168 137.508C17.0888 138.559 14.6009 139.085 11.7041 139.085L9.53125 139.05C8.17639 139.003 7.19527 138.979 6.58789 138.979C4.18171 138.979 2.38286 139.015 1.19141 139.085V138.384C1.9621 138.337 2.52263 138.244 2.87305 138.104C3.24675 137.963 3.49253 137.695 3.60938 137.298C3.74955 136.901 3.81934 136.258 3.81934 135.37V117.989C3.81934 117.102 3.74955 116.459 3.60938 116.062C3.49256 115.664 3.24682 115.396 2.87305 115.256C2.52263 115.116 1.96215 115.022 1.19141 114.976V114.274C2.1726 114.344 3.58614 114.38 5.43164 114.38H6.51758L7.91992 114.345C9.83536 114.298 11.2019 114.274 12.0195 114.274ZM48.7627 118.479C48.2955 118.69 47.8167 119.087 47.3262 119.671C46.8589 120.232 46.2987 121.085 45.6445 122.229L41.6494 129.588V135.16C41.6494 136.095 41.731 136.784 41.8945 137.228C42.0581 137.648 42.3618 137.94 42.8057 138.104C43.2495 138.244 43.9504 138.337 44.9082 138.384V139.085C43.6934 139.015 41.6843 138.979 38.8809 138.979C36.0307 138.979 34.0796 139.015 33.0283 139.085V138.384C33.9859 138.337 34.687 138.244 35.1309 138.104C35.5747 137.94 35.8784 137.648 36.042 137.228C36.2055 136.784 36.2881 136.095 36.2881 135.16V131.375L30.0146 120.477C29.6176 119.799 29.2675 119.32 28.9639 119.04C28.6602 118.76 28.3328 118.585 27.9824 118.515V117.778C29.4307 117.895 30.809 117.954 32.1172 117.954C33.9628 117.954 36.0191 117.895 38.2852 117.778V118.515C37.5843 118.515 37.0348 118.584 36.6377 118.725C36.2407 118.841 36.042 119.087 36.042 119.461C36.042 119.765 36.1709 120.127 36.4277 120.547L41.1934 128.853L43.4365 124.752C44.3241 123.117 44.7675 121.774 44.7676 120.723C44.7676 119.298 43.8918 118.55 42.1396 118.479V117.778C43.5647 117.848 44.873 117.884 46.0645 117.884C47.2325 117.884 48.1319 117.848 48.7627 117.778V118.479ZM94.1045 136.141C94.782 137.589 95.5182 138.337 96.3125 138.384V139.085C95.1911 139.015 93.6607 138.979 91.7217 138.979C89.2223 138.979 87.377 139.015 86.1855 139.085V138.384C86.9563 138.337 87.5286 138.22 87.9023 138.033C88.276 137.823 88.4628 137.485 88.4629 137.018C88.4629 136.597 88.3114 136.071 88.0078 135.44L86.2549 131.445H78.8965L78.4756 132.392C77.8215 133.933 77.4951 135.137 77.4951 136.001C77.4951 136.795 77.7517 137.379 78.2656 137.753C78.7795 138.127 79.5386 138.337 80.543 138.384V139.085C79.2115 139.015 77.8685 138.979 76.5137 138.979C75.2521 138.979 74.3056 139.015 73.6748 139.085V138.384C74.2354 138.267 74.7496 137.917 75.2168 137.333C75.7074 136.726 76.2215 135.825 76.7588 134.634L84.1523 117.709C84.3392 117.732 84.6086 117.744 84.959 117.744C85.3326 117.744 85.6011 117.732 85.7646 117.709L94.1045 136.141ZM140.153 117.778C139.99 119.554 139.908 121.143 139.908 122.545C139.908 123.853 139.944 124.88 140.014 125.628H139.208C138.881 123.853 138.484 122.463 138.017 121.458C137.573 120.453 136.988 119.729 136.264 119.285C135.563 118.818 134.651 118.585 133.53 118.585H132.444V135.02C132.444 136.001 132.538 136.713 132.725 137.157C132.911 137.601 133.239 137.905 133.706 138.068C134.173 138.232 134.932 138.337 135.983 138.384V139.085C134.722 139.015 132.619 138.979 129.676 138.979C126.709 138.979 124.665 139.015 123.544 139.085V138.384C124.595 138.337 125.354 138.232 125.821 138.068C126.289 137.905 126.616 137.601 126.803 137.157C126.99 136.713 127.083 136.001 127.083 135.02V118.585H125.996C124.875 118.585 123.953 118.818 123.229 119.285C122.528 119.729 121.943 120.453 121.476 121.458C121.032 122.463 120.646 123.853 120.319 125.628H119.514C119.584 124.88 119.619 123.853 119.619 122.545C119.619 121.143 119.537 119.554 119.373 117.778C121.405 117.848 124.84 117.884 129.676 117.884C134.605 117.884 138.097 117.848 140.153 117.778ZM162.946 118.479C162.479 118.69 162 119.087 161.51 119.671C161.043 120.232 160.481 121.085 159.827 122.229L155.832 129.588V135.16C155.832 136.095 155.915 136.784 156.078 137.228C156.242 137.648 156.545 137.94 156.989 138.104C157.433 138.244 158.134 138.337 159.092 138.384V139.085C157.877 139.015 155.868 138.979 153.064 138.979C150.214 138.979 148.263 139.015 147.212 139.085V138.384C148.17 138.337 148.871 138.244 149.314 138.104C149.758 137.94 150.062 137.648 150.226 137.228C150.389 136.784 150.471 136.095 150.471 135.16V131.375L144.198 120.477C143.801 119.799 143.45 119.32 143.146 119.04C142.843 118.76 142.516 118.585 142.166 118.515V117.778C143.614 117.895 144.993 117.954 146.301 117.954C148.146 117.954 150.203 117.895 152.469 117.778V118.515C151.768 118.515 151.218 118.584 150.821 118.725C150.424 118.841 150.226 119.087 150.226 119.461C150.226 119.765 150.354 120.126 150.611 120.547L155.377 128.853L157.619 124.752C158.507 123.117 158.951 121.774 158.951 120.723C158.951 119.298 158.075 118.55 156.323 118.479V117.778C157.748 117.848 159.057 117.884 160.248 117.884C161.416 117.884 162.316 117.848 162.946 117.778V118.479ZM11.9844 114.905C11.2605 114.905 10.7117 114.987 10.3379 115.15C9.98752 115.314 9.74174 115.606 9.60156 116.026C9.46139 116.447 9.3916 117.078 9.3916 117.919V135.44C9.39161 136.281 9.4614 136.913 9.60156 137.333C9.74176 137.753 9.98758 138.046 10.3379 138.209C10.7117 138.372 11.2723 138.454 12.0195 138.454C14.8462 138.454 16.8554 137.473 18.0469 135.511C19.2383 133.525 19.834 130.534 19.834 126.539C19.834 122.545 19.2146 119.613 17.9766 117.744C16.7617 115.852 14.7644 114.905 11.9844 114.905ZM79.2119 130.744H85.9395L82.5762 123.07L79.2119 130.744Z" fill="white"/>
<path d="M107.209 117.288C108.284 117.288 109.195 117.405 109.942 117.639C110.713 117.872 111.438 118.188 112.115 118.585C112.372 118.725 112.594 118.842 112.781 118.936C112.991 119.029 113.167 119.075 113.307 119.075C113.517 119.075 113.68 118.958 113.797 118.725C113.914 118.468 114.007 118.07 114.077 117.533H114.884C114.767 118.935 114.708 121.365 114.708 124.822H113.902C113.645 122.72 112.968 121.072 111.87 119.881C110.772 118.666 109.335 118.059 107.56 118.059C106.392 118.059 105.446 118.316 104.722 118.83C104.021 119.344 103.67 120.01 103.67 120.827C103.67 121.458 103.857 122.042 104.23 122.579C104.628 123.093 105.142 123.573 105.772 124.017C106.403 124.46 107.326 125.044 108.541 125.769L109.312 126.224C110.713 127.018 111.858 127.742 112.746 128.396C113.634 129.027 114.37 129.787 114.954 130.675C115.538 131.539 115.83 132.52 115.83 133.618C115.83 135.534 115.036 137.005 113.447 138.033C111.859 139.061 109.767 139.575 107.174 139.575C106.053 139.575 105.083 139.446 104.266 139.189C103.448 138.956 102.618 138.629 101.777 138.209C101.193 137.929 100.784 137.788 100.551 137.788C100.341 137.788 100.177 137.917 100.061 138.174C99.9438 138.407 99.8503 138.793 99.7803 139.33H98.9746C99.0681 138.022 99.1143 135.171 99.1143 130.779H99.9199C100.083 133.256 100.75 135.207 101.918 136.632C103.109 138.057 104.78 138.769 106.929 138.77C107.98 138.77 108.891 138.5 109.662 137.963C110.433 137.426 110.818 136.631 110.818 135.58C110.818 134.646 110.457 133.84 109.732 133.162C109.008 132.485 107.77 131.632 106.018 130.604C103.798 129.343 102.093 128.14 100.901 126.995C99.7333 125.85 99.1494 124.507 99.1494 122.965C99.1495 121.143 99.8975 119.741 101.393 118.76C102.911 117.779 104.85 117.288 107.209 117.288ZM73.21 118.479C72.4393 118.596 71.867 118.771 71.4932 119.005C71.1427 119.239 70.897 119.613 70.7568 120.127C70.6401 120.641 70.582 121.424 70.582 122.475V139.155L69.6357 139.12L68.7246 139.155L54.707 121.738V134.389C54.707 135.417 54.8004 136.2 54.9873 136.737C55.1742 137.251 55.5134 137.625 56.0039 137.858C56.4945 138.092 57.2653 138.267 58.3164 138.384V139.085C57.2653 139.015 55.9339 138.979 54.3223 138.979C53.0376 138.979 52.021 139.015 51.2734 139.085V138.384C52.0441 138.267 52.6047 138.092 52.9551 137.858C53.3288 137.625 53.5746 137.251 53.6914 136.737C53.8316 136.223 53.9014 135.44 53.9014 134.389V121.493C53.9014 120.605 53.8316 119.963 53.6914 119.565C53.5746 119.168 53.3288 118.9 52.9551 118.76C52.6047 118.62 52.0441 118.526 51.2734 118.479V117.778C52.021 117.848 53.0375 117.884 54.3223 117.884C55.9806 117.884 57.4054 117.848 58.5967 117.778L69.7754 131.655V122.475C69.7754 121.447 69.6819 120.676 69.4951 120.162C69.3082 119.625 68.9582 119.239 68.4443 119.005C67.9537 118.771 67.1939 118.596 66.166 118.479V117.778C67.1939 117.848 68.5258 117.884 70.1611 117.884C71.4694 117.884 72.4857 117.848 73.21 117.778V118.479ZM12.0195 114.274C16.5751 114.274 19.9859 115.314 22.252 117.394C24.5179 119.449 25.6514 122.451 25.6514 126.399C25.6513 128.946 25.0901 131.177 23.9688 133.093C22.8708 134.985 21.2704 136.457 19.168 137.508C17.0888 138.559 14.6009 139.085 11.7041 139.085L9.53125 139.05C8.17639 139.003 7.19527 138.979 6.58789 138.979C4.18171 138.979 2.38286 139.015 1.19141 139.085V138.384C1.9621 138.337 2.52263 138.244 2.87305 138.104C3.24675 137.963 3.49253 137.695 3.60938 137.298C3.74955 136.901 3.81934 136.258 3.81934 135.37V117.989C3.81934 117.102 3.74955 116.459 3.60938 116.062C3.49256 115.664 3.24682 115.396 2.87305 115.256C2.52263 115.116 1.96215 115.022 1.19141 114.976V114.274C2.1726 114.344 3.58614 114.38 5.43164 114.38H6.51758L7.91992 114.345C9.83536 114.298 11.2019 114.274 12.0195 114.274ZM48.7627 118.479C48.2955 118.69 47.8167 119.087 47.3262 119.671C46.8589 120.232 46.2987 121.085 45.6445 122.229L41.6494 129.588V135.16C41.6494 136.095 41.731 136.784 41.8945 137.228C42.0581 137.648 42.3618 137.94 42.8057 138.104C43.2495 138.244 43.9504 138.337 44.9082 138.384V139.085C43.6934 139.015 41.6843 138.979 38.8809 138.979C36.0307 138.979 34.0796 139.015 33.0283 139.085V138.384C33.9859 138.337 34.687 138.244 35.1309 138.104C35.5747 137.94 35.8784 137.648 36.042 137.228C36.2055 136.784 36.2881 136.095 36.2881 135.16V131.375L30.0146 120.477C29.6176 119.799 29.2675 119.32 28.9639 119.04C28.6602 118.76 28.3328 118.585 27.9824 118.515V117.778C29.4307 117.895 30.809 117.954 32.1172 117.954C33.9628 117.954 36.0191 117.895 38.2852 117.778V118.515C37.5843 118.515 37.0348 118.584 36.6377 118.725C36.2407 118.841 36.042 119.087 36.042 119.461C36.042 119.765 36.1709 120.127 36.4277 120.547L41.1934 128.853L43.4365 124.752C44.3241 123.117 44.7675 121.774 44.7676 120.723C44.7676 119.298 43.8918 118.55 42.1396 118.479V117.778C43.5647 117.848 44.873 117.884 46.0645 117.884C47.2325 117.884 48.1319 117.848 48.7627 117.778V118.479ZM94.1045 136.141C94.782 137.589 95.5182 138.337 96.3125 138.384V139.085C95.1911 139.015 93.6607 138.979 91.7217 138.979C89.2223 138.979 87.377 139.015 86.1855 139.085V138.384C86.9563 138.337 87.5286 138.22 87.9023 138.033C88.276 137.823 88.4628 137.485 88.4629 137.018C88.4629 136.597 88.3114 136.071 88.0078 135.44L86.2549 131.445H78.8965L78.4756 132.392C77.8215 133.933 77.4951 135.137 77.4951 136.001C77.4951 136.795 77.7517 137.379 78.2656 137.753C78.7795 138.127 79.5386 138.337 80.543 138.384V139.085C79.2115 139.015 77.8685 138.979 76.5137 138.979C75.2521 138.979 74.3056 139.015 73.6748 139.085V138.384C74.2354 138.267 74.7496 137.917 75.2168 137.333C75.7074 136.726 76.2215 135.825 76.7588 134.634L84.1523 117.709C84.3392 117.732 84.6086 117.744 84.959 117.744C85.3326 117.744 85.6011 117.732 85.7646 117.709L94.1045 136.141ZM140.153 117.778C139.99 119.554 139.908 121.143 139.908 122.545C139.908 123.853 139.944 124.88 140.014 125.628H139.208C138.881 123.853 138.484 122.463 138.017 121.458C137.573 120.453 136.988 119.729 136.264 119.285C135.563 118.818 134.651 118.585 133.53 118.585H132.444V135.02C132.444 136.001 132.538 136.713 132.725 137.157C132.911 137.601 133.239 137.905 133.706 138.068C134.173 138.232 134.932 138.337 135.983 138.384V139.085C134.722 139.015 132.619 138.979 129.676 138.979C126.709 138.979 124.665 139.015 123.544 139.085V138.384C124.595 138.337 125.354 138.232 125.821 138.068C126.289 137.905 126.616 137.601 126.803 137.157C126.99 136.713 127.083 136.001 127.083 135.02V118.585H125.996C124.875 118.585 123.953 118.818 123.229 119.285C122.528 119.729 121.943 120.453 121.476 121.458C121.032 122.463 120.646 123.853 120.319 125.628H119.514C119.584 124.88 119.619 123.853 119.619 122.545C119.619 121.143 119.537 119.554 119.373 117.778C121.405 117.848 124.84 117.884 129.676 117.884C134.605 117.884 138.097 117.848 140.153 117.778ZM162.946 118.479C162.479 118.69 162 119.087 161.51 119.671C161.043 120.232 160.481 121.085 159.827 122.229L155.832 129.588V135.16C155.832 136.095 155.915 136.784 156.078 137.228C156.242 137.648 156.545 137.94 156.989 138.104C157.433 138.244 158.134 138.337 159.092 138.384V139.085C157.877 139.015 155.868 138.979 153.064 138.979C150.214 138.979 148.263 139.015 147.212 139.085V138.384C148.17 138.337 148.871 138.244 149.314 138.104C149.758 137.94 150.062 137.648 150.226 137.228C150.389 136.784 150.471 136.095 150.471 135.16V131.375L144.198 120.477C143.801 119.799 143.45 119.32 143.146 119.04C142.843 118.76 142.516 118.585 142.166 118.515V117.778C143.614 117.895 144.993 117.954 146.301 117.954C148.146 117.954 150.203 117.895 152.469 117.778V118.515C151.768 118.515 151.218 118.584 150.821 118.725C150.424 118.841 150.226 119.087 150.226 119.461C150.226 119.765 150.354 120.126 150.611 120.547L155.377 128.853L157.619 124.752C158.507 123.117 158.951 121.774 158.951 120.723C158.951 119.298 158.075 118.55 156.323 118.479V117.778C157.748 117.848 159.057 117.884 160.248 117.884C161.416 117.884 162.316 117.848 162.946 117.778V118.479ZM11.9844 114.905C11.2605 114.905 10.7117 114.987 10.3379 115.15C9.98752 115.314 9.74174 115.606 9.60156 116.026C9.46139 116.447 9.3916 117.078 9.3916 117.919V135.44C9.39161 136.281 9.4614 136.913 9.60156 137.333C9.74176 137.753 9.98758 138.046 10.3379 138.209C10.7117 138.372 11.2723 138.454 12.0195 138.454C14.8462 138.454 16.8554 137.473 18.0469 135.511C19.2383 133.525 19.834 130.534 19.834 126.539C19.834 122.545 19.2146 119.613 17.9766 117.744C16.7617 115.852 14.7644 114.905 11.9844 114.905ZM79.2119 130.744H85.9395L82.5762 123.07L79.2119 130.744Z" fill="white"/>
<path opacity="0.9" d="M15.1094 160.114C15.1094 160.576 15.1577 161.007 15.2549 161.408C15.352 161.809 15.5099 162.161 15.7285 162.465C15.9472 162.756 16.2327 162.988 16.585 163.158C16.9372 163.328 17.3688 163.413 17.8789 163.413C18.4011 163.413 18.8382 163.334 19.1904 163.176C19.5549 163.006 19.8468 162.775 20.0654 162.483C20.284 162.192 20.4419 161.846 20.5391 161.445C20.6362 161.044 20.6846 160.6 20.6846 160.114V154.721H21.8877V160.151C21.8876 161.512 21.5718 162.568 20.9404 163.321C20.3088 164.062 19.288 164.434 17.8789 164.434C16.5062 164.434 15.4974 164.062 14.8535 163.321C14.2221 162.568 13.9063 161.512 13.9062 160.151V154.721H15.1094V160.114ZM29.3438 154.611C29.7203 154.611 30.0971 154.654 30.4736 154.739C30.8622 154.812 31.2145 154.94 31.5303 155.122C31.846 155.304 32.1134 155.541 32.332 155.832C32.5628 156.124 32.7142 156.477 32.7871 156.89H31.6758C31.5907 156.671 31.463 156.482 31.293 156.324C31.123 156.154 30.9285 156.021 30.71 155.924C30.4913 155.827 30.2605 155.754 30.0176 155.705C29.7747 155.657 29.5374 155.632 29.3066 155.632C29.0274 155.632 28.7416 155.657 28.4502 155.705C28.171 155.754 27.9162 155.839 27.6855 155.96C27.4548 156.069 27.2604 156.227 27.1025 156.434C26.9568 156.64 26.8838 156.907 26.8838 157.235C26.8838 157.49 26.9321 157.709 27.0293 157.892C27.1386 158.074 27.2728 158.225 27.4307 158.347C27.6007 158.468 27.7887 158.566 27.9951 158.639C28.2016 158.712 28.4142 158.772 28.6328 158.82C29.0216 158.905 29.4047 158.985 29.7812 159.058C30.1577 159.13 30.5402 159.215 30.9287 159.312C31.5726 159.446 32.0952 159.702 32.4961 160.078C32.9091 160.455 33.1152 160.996 33.1152 161.7C33.1152 162.235 33.0003 162.678 32.7695 163.03C32.5509 163.383 32.2653 163.668 31.9131 163.887C31.5608 164.093 31.1594 164.239 30.71 164.324C30.2606 164.397 29.8107 164.434 29.3613 164.434C28.9485 164.434 28.5295 164.391 28.1045 164.306C27.6793 164.221 27.2844 164.087 26.9199 163.904C26.5556 163.71 26.2399 163.461 25.9727 163.157C25.7055 162.854 25.523 162.471 25.4258 162.01H26.6465C26.7801 162.289 26.9443 162.52 27.1387 162.702C27.3451 162.872 27.5697 163.012 27.8125 163.121C28.0554 163.218 28.3109 163.291 28.5781 163.34C28.8574 163.388 29.1368 163.413 29.416 163.413C29.6953 163.413 29.9811 163.395 30.2725 163.358C30.5761 163.322 30.8499 163.249 31.0928 163.14C31.3357 163.018 31.5364 162.848 31.6943 162.629C31.8521 162.41 31.9307 162.125 31.9307 161.772C31.9306 161.53 31.8823 161.323 31.7852 161.153C31.688 160.983 31.5603 160.844 31.4023 160.734C31.2446 160.625 31.0627 160.54 30.8564 160.479C30.6621 160.407 30.4613 160.345 30.2549 160.297C29.8784 160.212 29.5079 160.139 29.1436 160.078C28.7792 160.005 28.4023 159.92 28.0137 159.823C27.3455 159.665 26.7928 159.385 26.3555 158.984C25.9181 158.571 25.6992 158 25.6992 157.271C25.6993 156.749 25.8088 156.319 26.0273 155.979C26.246 155.638 26.5252 155.371 26.8652 155.177C27.2175 154.97 27.6125 154.824 28.0498 154.739C28.4871 154.654 28.9186 154.611 29.3438 154.611ZM58.7734 154.611C59.5385 154.611 60.1819 154.764 60.7041 155.067C61.2385 155.371 61.6701 155.772 61.998 156.27C62.326 156.755 62.5568 157.32 62.6904 157.964C62.8362 158.596 62.8973 159.246 62.873 159.914H55.4385C55.4628 160.424 55.5476 160.892 55.6934 161.317C55.8513 161.743 56.0702 162.113 56.3496 162.429C56.629 162.732 56.9692 162.975 57.3701 163.157C57.7831 163.327 58.2629 163.413 58.8096 163.413C59.0646 163.413 59.3201 163.388 59.5752 163.34C59.8423 163.291 60.0916 163.218 60.3223 163.121C60.565 163.012 60.7833 162.872 60.9775 162.702C61.1719 162.532 61.3243 162.32 61.4336 162.064H62.6904C62.5568 162.489 62.3505 162.854 62.0713 163.157C61.804 163.461 61.4939 163.71 61.1416 163.904C60.7894 164.086 60.4071 164.221 59.9941 164.306C59.5811 164.391 59.1679 164.434 58.7549 164.434C58.0017 164.434 57.3395 164.311 56.7686 164.068C56.2098 163.825 55.7418 163.492 55.3652 163.066C54.9887 162.629 54.7095 162.113 54.5273 161.518C54.3451 160.91 54.2539 160.248 54.2539 159.531C54.2539 158.803 54.3516 158.135 54.5459 157.527C54.7403 156.92 55.0258 156.404 55.4023 155.979C55.7911 155.541 56.2644 155.206 56.8232 154.976C57.3942 154.733 58.0446 154.611 58.7734 154.611ZM70 154.611C70.3765 154.611 70.7534 154.654 71.1299 154.739C71.5185 154.812 71.8708 154.94 72.1865 155.122C72.5022 155.304 72.7697 155.541 72.9883 155.832C73.2191 156.124 73.3705 156.477 73.4434 156.89H72.332C72.247 156.671 72.1193 156.482 71.9492 156.324C71.7792 156.154 71.5848 156.021 71.3662 155.924C71.1476 155.827 70.9168 155.754 70.6738 155.705C70.4309 155.657 70.1937 155.632 69.9629 155.632C69.6836 155.632 69.3978 155.657 69.1064 155.705C68.8273 155.754 68.5724 155.839 68.3418 155.96C68.1111 156.069 67.9167 156.227 67.7588 156.434C67.613 156.64 67.5401 156.907 67.54 157.235C67.54 157.49 67.5884 157.709 67.6855 157.892C67.7949 158.074 67.929 158.225 68.0869 158.347C68.257 158.468 68.4449 158.566 68.6514 158.639C68.8578 158.712 69.0705 158.772 69.2891 158.82C69.6778 158.905 70.0609 158.985 70.4375 159.058C70.8139 159.13 71.1964 159.215 71.585 159.312C72.2288 159.446 72.7515 159.702 73.1523 160.078C73.5653 160.455 73.7715 160.996 73.7715 161.7C73.7714 162.235 73.6566 162.678 73.4258 163.03C73.2071 163.383 72.9216 163.668 72.5693 163.887C72.217 164.093 71.8157 164.239 71.3662 164.324C70.9168 164.397 70.467 164.434 70.0176 164.434C69.6047 164.434 69.1858 164.391 68.7607 164.306C68.3356 164.221 67.9406 164.087 67.5762 163.904C67.2118 163.71 66.8961 163.461 66.6289 163.157C66.3617 162.854 66.1792 162.471 66.082 162.01H67.3027C67.4364 162.289 67.6006 162.52 67.7949 162.702C68.0013 162.872 68.2259 163.012 68.4688 163.121C68.7117 163.218 68.9672 163.291 69.2344 163.34C69.5136 163.388 69.793 163.413 70.0723 163.413C70.3515 163.413 70.6373 163.395 70.9287 163.358C71.2323 163.322 71.5061 163.249 71.749 163.14C71.992 163.018 72.1927 162.848 72.3506 162.629C72.5084 162.41 72.5869 162.125 72.5869 161.772C72.5869 161.53 72.5386 161.323 72.4414 161.153C72.3442 160.983 72.2165 160.844 72.0586 160.734C71.9008 160.625 71.7189 160.54 71.5127 160.479C71.3184 160.407 71.1176 160.345 70.9111 160.297C70.5347 160.212 70.1641 160.139 69.7998 160.078C69.4355 160.005 69.0585 159.92 68.6699 159.823C68.0018 159.665 67.4491 159.385 67.0117 158.984C66.5744 158.571 66.3555 158 66.3555 157.271C66.3555 156.749 66.4651 156.319 66.6836 155.979C66.9022 155.638 67.1814 155.371 67.5215 155.177C67.8738 154.97 68.2687 154.824 68.7061 154.739C69.1434 154.654 69.5748 154.611 70 154.611ZM80.7461 154.611C81.1226 154.611 81.4995 154.654 81.876 154.739C82.2646 154.812 82.6169 154.94 82.9326 155.122C83.2483 155.304 83.5158 155.541 83.7344 155.832C83.9652 156.124 84.1166 156.477 84.1895 156.89H83.0781C82.9931 156.671 82.8654 156.482 82.6953 156.324C82.5253 156.154 82.3309 156.021 82.1123 155.924C81.8937 155.827 81.6629 155.754 81.4199 155.705C81.177 155.657 80.9398 155.632 80.709 155.632C80.4297 155.632 80.1439 155.657 79.8525 155.705C79.5734 155.754 79.3185 155.839 79.0879 155.96C78.8571 156.069 78.6628 156.227 78.5049 156.434C78.3591 156.64 78.2861 156.907 78.2861 157.235C78.2861 157.49 78.3345 157.709 78.4316 157.892C78.541 158.074 78.6751 158.225 78.833 158.347C79.003 158.468 79.191 158.566 79.3975 158.639C79.6039 158.712 79.8166 158.772 80.0352 158.82C80.4239 158.905 80.807 158.985 81.1836 159.058C81.56 159.13 81.9425 159.215 82.3311 159.312C82.9749 159.446 83.4976 159.702 83.8984 160.078C84.3114 160.455 84.5176 160.996 84.5176 161.7C84.5175 162.235 84.4026 162.678 84.1719 163.03C83.9532 163.383 83.6677 163.668 83.3154 163.887C82.9631 164.093 82.5618 164.239 82.1123 164.324C81.6629 164.397 81.2131 164.434 80.7637 164.434C80.3508 164.434 79.9319 164.391 79.5068 164.306C79.0816 164.221 78.6867 164.087 78.3223 163.904C77.9579 163.71 77.6422 163.461 77.375 163.157C77.1078 162.854 76.9253 162.471 76.8281 162.01H78.0488C78.1825 162.289 78.3466 162.52 78.541 162.702C78.7474 162.872 78.972 163.012 79.2148 163.121C79.4578 163.218 79.7132 163.291 79.9805 163.34C80.2597 163.388 80.5391 163.413 80.8184 163.413C81.0976 163.413 81.3834 163.395 81.6748 163.358C81.9784 163.322 82.2522 163.249 82.4951 163.14C82.7381 163.018 82.9388 162.848 83.0967 162.629C83.2545 162.41 83.333 162.125 83.333 161.772C83.333 161.53 83.2846 161.323 83.1875 161.153C83.0903 160.983 82.9626 160.844 82.8047 160.734C82.6469 160.625 82.465 160.54 82.2588 160.479C82.0645 160.407 81.8637 160.345 81.6572 160.297C81.2808 160.212 80.9102 160.139 80.5459 160.078C80.1816 160.005 79.8046 159.92 79.416 159.823C78.7479 159.665 78.1951 159.385 77.7578 158.984C77.3205 158.571 77.1016 158 77.1016 157.271C77.1016 156.749 77.2112 156.319 77.4297 155.979C77.6483 155.638 77.9275 155.371 78.2676 155.177C78.6199 154.97 79.0148 154.824 79.4521 154.739C79.8895 154.654 80.3209 154.611 80.7461 154.611ZM98.3379 154.611C99.0424 154.611 99.6381 154.733 100.124 154.976C100.61 155.206 100.998 155.523 101.29 155.924C101.594 156.325 101.806 156.798 101.928 157.345C102.061 157.891 102.129 158.481 102.129 159.112V164.324H101.145L100.98 162.939C100.519 163.498 99.9906 163.887 99.3955 164.105C98.8125 164.324 98.1683 164.434 97.4639 164.434C97.0387 164.434 96.6255 164.384 96.2246 164.287C95.836 164.178 95.4837 164.008 95.168 163.777C94.8521 163.547 94.5967 163.255 94.4023 162.902C94.2202 162.538 94.1289 162.131 94.1289 161.682C94.1289 161.135 94.2321 160.68 94.4385 160.315C94.645 159.951 94.9123 159.659 95.2402 159.44C95.5803 159.222 95.9691 159.069 96.4062 158.984C96.8436 158.887 97.2997 158.839 97.7734 158.839H100.926C100.926 158.402 100.877 157.988 100.78 157.6C100.695 157.211 100.549 156.871 100.343 156.579C100.136 156.288 99.8625 156.057 99.5225 155.887C99.1945 155.717 98.7875 155.632 98.3018 155.632C98.071 155.632 97.8338 155.65 97.5908 155.687C97.3601 155.723 97.1356 155.784 96.917 155.869C96.7105 155.954 96.5162 156.075 96.334 156.233C96.1639 156.379 96.0244 156.562 95.915 156.78H94.6025C94.7119 156.379 94.8943 156.045 95.1494 155.777C95.4044 155.498 95.702 155.274 96.042 155.104C96.3942 154.921 96.7647 154.794 97.1533 154.721C97.5541 154.648 97.9493 154.611 98.3379 154.611ZM114.726 164.324H113.523V162.812C113.123 163.358 112.618 163.765 112.011 164.032C111.403 164.299 110.735 164.434 110.006 164.434C109.253 164.434 108.603 164.293 108.057 164.014C107.522 163.734 107.084 163.358 106.744 162.885C106.416 162.411 106.174 161.864 106.016 161.244C105.87 160.613 105.809 159.957 105.833 159.276C105.845 158.608 105.949 157.994 106.144 157.436C106.35 156.865 106.641 156.373 107.018 155.96C107.394 155.535 107.85 155.206 108.385 154.976C108.931 154.733 109.551 154.611 110.243 154.611C110.559 154.611 110.875 154.641 111.19 154.702C111.506 154.751 111.805 154.837 112.084 154.958C112.375 155.079 112.643 155.237 112.886 155.432C113.129 155.626 113.341 155.863 113.523 156.143V151.44H114.726V164.324ZM138.82 154.611C139.197 154.611 139.574 154.654 139.95 154.739C140.339 154.812 140.691 154.94 141.007 155.122C141.323 155.304 141.59 155.541 141.809 155.832C142.039 156.124 142.191 156.477 142.264 156.89H141.152C141.067 156.671 140.94 156.482 140.77 156.324C140.6 156.154 140.405 156.021 140.187 155.924C139.968 155.827 139.737 155.754 139.494 155.705C139.251 155.657 139.014 155.632 138.783 155.632C138.504 155.632 138.218 155.657 137.927 155.705C137.648 155.754 137.393 155.839 137.162 155.96C136.931 156.069 136.737 156.227 136.579 156.434C136.433 156.64 136.36 156.907 136.36 157.235C136.36 157.49 136.409 157.709 136.506 157.892C136.615 158.074 136.749 158.225 136.907 158.347C137.077 158.468 137.265 158.566 137.472 158.639C137.678 158.712 137.891 158.772 138.109 158.82C138.498 158.905 138.881 158.985 139.258 159.058C139.634 159.13 140.017 159.215 140.405 159.312C141.049 159.446 141.572 159.702 141.973 160.078C142.386 160.455 142.592 160.996 142.592 161.7C142.592 162.235 142.477 162.678 142.246 163.03C142.027 163.383 141.742 163.668 141.39 163.887C141.037 164.093 140.636 164.239 140.187 164.324C139.737 164.397 139.287 164.434 138.838 164.434C138.425 164.434 138.006 164.391 137.581 164.306C137.156 164.221 136.761 164.087 136.396 163.904C136.032 163.71 135.716 163.461 135.449 163.157C135.182 162.854 135 162.471 134.902 162.01H136.123C136.257 162.289 136.421 162.52 136.615 162.702C136.822 162.872 137.046 163.012 137.289 163.121C137.532 163.218 137.787 163.291 138.055 163.34C138.334 163.388 138.613 163.413 138.893 163.413C139.172 163.413 139.458 163.395 139.749 163.358C140.053 163.322 140.326 163.249 140.569 163.14C140.812 163.018 141.013 162.848 141.171 162.629C141.329 162.41 141.407 162.125 141.407 161.772C141.407 161.53 141.359 161.323 141.262 161.153C141.165 160.983 141.037 160.844 140.879 160.734C140.721 160.625 140.539 160.54 140.333 160.479C140.139 160.407 139.938 160.345 139.731 160.297C139.355 160.212 138.984 160.139 138.62 160.078C138.256 160.005 137.879 159.92 137.49 159.823C136.822 159.665 136.269 159.385 135.832 158.984C135.395 158.571 135.176 158 135.176 157.271C135.176 156.749 135.285 156.319 135.504 155.979C135.723 155.638 136.002 155.371 136.342 155.177C136.694 154.97 137.089 154.824 137.526 154.739C137.964 154.654 138.395 154.611 138.82 154.611ZM150.316 154.611C151.081 154.611 151.725 154.764 152.247 155.067C152.782 155.371 153.213 155.772 153.541 156.27C153.869 156.755 154.1 157.32 154.233 157.964C154.379 158.596 154.44 159.246 154.416 159.914H146.981C147.006 160.424 147.091 160.892 147.236 161.317C147.394 161.743 147.613 162.113 147.893 162.429C148.172 162.732 148.512 162.975 148.913 163.157C149.326 163.327 149.806 163.413 150.353 163.413C150.608 163.413 150.863 163.388 151.118 163.34C151.385 163.291 151.635 163.218 151.865 163.121C152.108 163.012 152.326 162.872 152.521 162.702C152.715 162.532 152.867 162.32 152.977 162.064H154.233C154.1 162.489 153.893 162.854 153.614 163.157C153.347 163.461 153.037 163.71 152.685 163.904C152.332 164.086 151.95 164.221 151.537 164.306C151.124 164.391 150.711 164.434 150.298 164.434C149.545 164.434 148.882 164.311 148.312 164.068C147.753 163.825 147.285 163.492 146.908 163.066C146.532 162.629 146.253 162.113 146.07 161.518C145.888 160.91 145.797 160.248 145.797 159.531C145.797 158.803 145.895 158.135 146.089 157.527C146.283 156.92 146.569 156.404 146.945 155.979C147.334 155.541 147.807 155.206 148.366 154.976C148.937 154.733 149.588 154.611 150.316 154.611ZM2.51562 156.288C2.90436 155.693 3.40239 155.255 4.00977 154.976C4.6292 154.696 5.30351 154.557 6.03223 154.557C6.78534 154.557 7.42939 154.696 7.96387 154.976C8.49826 155.255 8.93528 155.632 9.27539 156.105C9.61551 156.579 9.8591 157.132 10.0049 157.764C10.1507 158.383 10.2172 159.034 10.2051 159.714C10.1808 160.54 10.0348 161.287 9.76758 161.955C9.51249 162.623 9.11201 163.164 8.56543 163.577C8.23751 163.832 7.84234 164.038 7.38086 164.196C6.9315 164.342 6.43321 164.415 5.88672 164.415C5.58303 164.415 5.27287 164.39 4.95703 164.342C4.64118 164.293 4.33105 164.215 4.02734 164.105C3.73592 163.984 3.4566 163.826 3.18945 163.632C2.92219 163.437 2.69144 163.194 2.49707 162.902L2.47852 164.324H1.3125V151.44H2.51562V156.288ZM38.0332 164.324H36.8311V154.721H38.0332V164.324ZM46.9707 154.611C47.4931 154.611 47.9492 154.684 48.3379 154.83C48.7386 154.976 49.0791 155.17 49.3584 155.413C49.8199 155.802 50.142 156.306 50.3242 156.926C50.5064 157.545 50.5967 158.238 50.5967 159.003V164.324H49.3945V159.44C49.3945 158.87 49.3461 158.323 49.249 157.801C49.164 157.266 48.9696 156.81 48.666 156.434C48.4595 156.191 48.204 155.996 47.9004 155.851C47.5967 155.705 47.2136 155.632 46.752 155.632C46.2541 155.632 45.7986 155.735 45.3857 155.941C44.9727 156.148 44.6261 156.415 44.3467 156.743C44.0308 157.108 43.8065 157.527 43.6729 158.001C43.5392 158.475 43.4727 158.973 43.4727 159.495V164.324H42.2695V154.721H43.4355L43.4727 156.36C43.6427 156.069 43.8554 155.814 44.1104 155.596C44.3654 155.365 44.6327 155.182 44.9121 155.049C45.2279 154.891 45.55 154.781 45.8779 154.721C46.2179 154.648 46.5822 154.611 46.9707 154.611ZM122.278 163.321L125.449 154.721H126.834L123.116 164.324H121.422L117.723 154.721H119.089L122.278 163.321ZM131.178 164.324H129.976V154.721H131.178V164.324ZM163.166 154.63V155.723H162.838C162.255 155.723 161.75 155.814 161.325 155.996C160.9 156.166 160.548 156.403 160.269 156.707C159.88 157.108 159.624 157.558 159.503 158.056C159.394 158.554 159.34 159.076 159.34 159.623V164.324H158.137V154.721H159.303L159.34 156.379C159.558 156.015 159.801 155.717 160.068 155.486C160.348 155.256 160.651 155.073 160.979 154.939C161.307 154.806 161.653 154.721 162.018 154.685C162.382 154.636 162.765 154.618 163.166 154.63ZM98.3926 159.805C98.0768 159.805 97.7364 159.817 97.3721 159.841C97.02 159.865 96.6922 159.938 96.3887 160.06C96.0851 160.169 95.8295 160.345 95.623 160.588C95.4287 160.819 95.3321 161.141 95.332 161.554C95.332 161.882 95.3922 162.162 95.5137 162.393C95.6473 162.623 95.8179 162.818 96.0244 162.976C96.243 163.133 96.4858 163.248 96.7529 163.321C97.0323 163.394 97.3178 163.431 97.6094 163.431C98.083 163.431 98.5201 163.37 98.9209 163.249C99.3339 163.128 99.687 162.945 99.9785 162.702C100.282 162.447 100.513 162.137 100.671 161.772C100.841 161.396 100.926 160.959 100.926 160.461V159.805H98.3926ZM5.77734 155.632C5.25497 155.632 4.77425 155.753 4.33691 155.996C3.89984 156.227 3.54201 156.531 3.2627 156.907C2.98338 157.259 2.78263 157.666 2.66113 158.128C2.53965 158.577 2.47852 159.052 2.47852 159.55C2.47853 160.145 2.57615 160.741 2.77051 161.336C2.97705 161.919 3.32922 162.399 3.82715 162.775C4.39807 163.2 5.06036 163.413 5.81348 163.413C6.3844 163.413 6.87062 163.309 7.27148 163.103C7.67216 162.896 7.99987 162.617 8.25488 162.265C8.50999 161.9 8.69883 161.487 8.82031 161.025C8.94173 160.552 9.00194 160.06 9.00195 159.55C9.00195 159.028 8.94175 158.529 8.82031 158.056C8.71098 157.57 8.52855 157.15 8.27344 156.798C8.0184 156.446 7.68433 156.166 7.27148 155.96C6.87069 155.741 6.37243 155.632 5.77734 155.632ZM110.225 155.632C109.654 155.632 109.168 155.741 108.768 155.96C108.367 156.166 108.038 156.452 107.783 156.816C107.528 157.169 107.339 157.575 107.218 158.037C107.096 158.499 107.036 158.985 107.036 159.495C107.036 160.03 107.091 160.534 107.2 161.008C107.322 161.481 107.51 161.894 107.765 162.246C108.02 162.598 108.348 162.884 108.749 163.103C109.162 163.309 109.666 163.413 110.262 163.413C110.796 163.413 111.276 163.297 111.701 163.066C112.138 162.823 112.497 162.52 112.776 162.155C113.056 161.791 113.256 161.384 113.377 160.935C113.498 160.473 113.56 159.993 113.56 159.495C113.56 158.9 113.462 158.311 113.268 157.728C113.073 157.145 112.727 156.665 112.229 156.288C111.95 156.082 111.64 155.924 111.3 155.814C110.96 155.693 110.601 155.632 110.225 155.632ZM58.627 155.632C58.129 155.632 57.6855 155.723 57.2969 155.905C56.9204 156.087 56.5983 156.33 56.3311 156.634C56.0638 156.937 55.8577 157.291 55.7119 157.691C55.5662 158.08 55.4813 158.487 55.457 158.912H61.6523C61.6402 158.475 61.5672 158.055 61.4336 157.654C61.3121 157.253 61.1232 156.908 60.8682 156.616C60.6252 156.313 60.316 156.075 59.9395 155.905C59.5629 155.723 59.125 155.632 58.627 155.632ZM150.17 155.632C149.672 155.632 149.229 155.723 148.84 155.905C148.463 156.087 148.141 156.33 147.874 156.634C147.607 156.937 147.401 157.291 147.255 157.691C147.109 158.08 147.024 158.487 147 158.912H153.195C153.183 158.475 153.11 158.055 152.977 157.654C152.855 157.253 152.666 156.908 152.411 156.616C152.168 156.313 151.859 156.075 151.482 155.905C151.106 155.723 150.668 155.632 150.17 155.632ZM37.4316 151.259C37.6988 151.259 37.9179 151.337 38.0879 151.495C38.258 151.653 38.3428 151.867 38.3428 152.134C38.3427 152.413 38.2578 152.631 38.0879 152.789C37.9178 152.947 37.6989 153.026 37.4316 153.026C37.1646 153.026 36.9464 152.947 36.7764 152.789C36.6185 152.631 36.5392 152.413 36.5391 152.134C36.5391 151.854 36.6184 151.641 36.7764 151.495C36.9463 151.338 37.1648 151.259 37.4316 151.259ZM130.576 151.259C130.843 151.259 131.062 151.337 131.232 151.495C131.402 151.653 131.487 151.867 131.487 152.134C131.487 152.413 131.402 152.631 131.232 152.789C131.062 152.947 130.843 153.026 130.576 153.026C130.309 153.026 130.091 152.947 129.921 152.789C129.763 152.631 129.684 152.413 129.684 152.134C129.684 151.854 129.763 151.641 129.921 151.495C130.091 151.338 130.309 151.259 130.576 151.259Z" fill="#FFE7AA"/>
</g>
<defs>
<filter id="filter0_i_101_165" x="36.1714" y="0" width="91.6572" height="91.6572" filterUnits="userSpaceOnUse" color-interpolation-filters="sRGB">
<feFlood flood-opacity="0" result="BackgroundImageFix"/>
<feBlend mode="normal" in="SourceGraphic" in2="BackgroundImageFix" result="shape"/>
<feColorMatrix in="SourceAlpha" type="matrix" values="0 0 0 0 0 0 0 0 0 0 0 0 0 0 0 0 0 0 127 0" result="hardAlpha"/>
<feOffset dx="-0.321732" dy="-0.643464"/>
<feComposite in2="hardAlpha" operator="arithmetic" k2="-1" k3="1"/>
<feColorMatrix type="matrix" values="0 0 0 0 1 0 0 0 0 0.909677 0 0 0 0 0.733333 0 0 0 0.4 0"/>
<feBlend mode="normal" in2="shape" result="effect1_innerShadow_101_165"/>
</filter>
<clipPath id="clip0_101_165">
<rect width="164" height="56.0684" fill="white" transform="translate(0 111.281)"/>
</clipPath>
</defs>
</svg>
